<svg width="49" height="49" viewBox="0 0 49 49" fill="none" xmlns="http://www.w3.org/2000/svg">
<path d="M45.5181 3.03454V45.5181H0L0 3.03454L9.10361 3.03454V0L12.1382 0V3.03454L33.3799 3.03454V0L36.4145 0V3.03454L45.5181 3.03454ZM3.03454 6.06908L3.03454 12.1382L42.4835 12.1382V6.06908L36.4145 6.06908V9.10361H33.3799V6.06908L12.1382 6.06908V9.10361H9.10361V6.06908L3.03454 6.06908ZM42.4835 42.4835V15.1727L3.03454 15.1727L3.03454 42.4835H42.4835ZM32.0523 24.2763L26.3388 28.757L28.7333 36.2248L22.759 31.5545L16.7848 36.2248L19.1792 28.757L13.4658 24.2763H20.6254L22.759 17.6383L24.8927 24.2763L32.0523 24.2763Z" fill="white"/>
</svg>
