<svg width="73" height="73" viewBox="0 0 73 73" fill="none" xmlns="http://www.w3.org/2000/svg">
<path fill-rule="evenodd" clip-rule="evenodd" d="M36.5002 6.08331C19.701 6.08331 6.0835 19.7009 6.0835 36.5C6.0835 53.2991 19.701 66.9166 36.5002 66.9166C53.2993 66.9166 66.9168 53.2991 66.9168 36.5C66.9168 19.7009 53.2993 6.08331 36.5002 6.08331ZM25.8543 28.8958C25.8543 27.4978 26.1297 26.1134 26.6647 24.8218C27.1997 23.5302 27.9839 22.3566 28.9724 21.3681C29.961 20.3795 31.1346 19.5953 32.4262 19.0603C33.7178 18.5253 35.1021 18.25 36.5002 18.25C37.8982 18.25 39.2825 18.5253 40.5741 19.0603C41.8658 19.5953 43.0393 20.3795 44.0279 21.3681C45.0165 22.3566 45.8006 23.5302 46.3356 24.8218C46.8706 26.1134 47.146 27.4978 47.146 28.8958C47.146 31.7193 46.0244 34.4271 44.0279 36.4236C42.0314 38.42 39.3236 39.5416 36.5002 39.5416C33.6767 39.5416 30.9689 38.42 28.9724 36.4236C26.9759 34.4271 25.8543 31.7193 25.8543 28.8958ZM55.5349 51.6596C53.2573 54.5229 50.3626 56.835 47.0667 58.4234C43.7708 60.0118 40.1588 60.8356 36.5002 60.8333C32.8415 60.8356 29.2295 60.0118 25.9336 58.4234C22.6377 56.835 19.743 54.5229 17.4654 51.6596C22.396 48.1222 29.1241 45.625 36.5002 45.625C43.8762 45.625 50.6044 48.1222 55.5349 51.6596Z" fill="#006B95"/>
</svg>
