<svg width="21" height="21" viewBox="0 0 21 21" fill="none" xmlns="http://www.w3.org/2000/svg">
<path d="M3.5 6.125H17.5M8.75 9.625V14.875M12.25 9.625V14.875M4.375 6.125L5.25 16.625C5.25 17.0891 5.43437 17.5342 5.76256 17.8624C6.09075 18.1906 6.53587 18.375 7 18.375H14C14.4641 18.375 14.9092 18.1906 15.2374 17.8624C15.5656 17.5342 15.75 17.0891 15.75 16.625L16.625 6.125M7.875 6.125V3.5C7.875 3.26794 7.96719 3.04538 8.13128 2.88128C8.29538 2.71719 8.51794 2.625 8.75 2.625H12.25C12.4821 2.625 12.7046 2.71719 12.8687 2.88128C13.0328 3.04538 13.125 3.26794 13.125 3.5V6.125" stroke="black" stroke-width="2" stroke-linecap="round" stroke-linejoin="round"/>
</svg>
