<svg width="50" height="50" viewBox="0 0 50 50" fill="none" xmlns="http://www.w3.org/2000/svg">
<g clip-path="url(#clip0_40_1066)">
<path d="M46.4038 3.9204V46.4039H0.885742L0.885742 3.9204L9.98936 3.9204V0.885864L13.0239 0.885864V3.9204L34.2657 3.9204V0.885864L37.3002 0.885864V3.9204L46.4038 3.9204ZM3.92028 6.95494L3.92028 13.024L43.3693 13.024V6.95494L37.3002 6.95494V9.98948H34.2657V6.95494L13.0239 6.95494V9.98948H9.98936V6.95494L3.92028 6.95494ZM43.3693 43.3694V16.0586H3.92028L3.92028 43.3694H43.3693ZM32.938 25.1622L27.2246 29.6429L29.619 37.1107L23.6448 32.4403L17.6705 37.1107L20.065 29.6429L14.3515 25.1622H21.5111L23.6448 18.5241L25.7784 25.1622L32.938 25.1622Z" fill="#006B95"/>
</g>
<defs>
<clipPath id="clip0_40_1066">
<rect width="48.5526" height="48.5526" fill="white" transform="translate(0.885742 0.885864)"/>
</clipPath>
</defs>
</svg>
