<svg width="73" height="73" viewBox="0 0 73 73" fill="none" xmlns="http://www.w3.org/2000/svg">
<path fill-rule="evenodd" clip-rule="evenodd" d="M36.5002 6.08337C19.701 6.08337 6.0835 19.7009 6.0835 36.5C6.0835 53.2992 19.701 66.9167 36.5002 66.9167C53.2993 66.9167 66.9168 53.2992 66.9168 36.5C66.9168 19.7009 53.2993 6.08337 36.5002 6.08337ZM25.8543 28.8959C25.8543 27.4978 26.1297 26.1135 26.6647 24.8219C27.1997 23.5303 27.9839 22.3567 28.9724 21.3681C29.961 20.3796 31.1346 19.5954 32.4262 19.0604C33.7178 18.5254 35.1021 18.25 36.5002 18.25C37.8982 18.25 39.2825 18.5254 40.5741 19.0604C41.8658 19.5954 43.0393 20.3796 44.0279 21.3681C45.0165 22.3567 45.8006 23.5303 46.3356 24.8219C46.8706 26.1135 47.146 27.4978 47.146 28.8959C47.146 31.7193 46.0244 34.4271 44.0279 36.4236C42.0314 38.4201 39.3236 39.5417 36.5002 39.5417C33.6767 39.5417 30.9689 38.4201 28.9724 36.4236C26.9759 34.4271 25.8543 31.7193 25.8543 28.8959ZM55.5349 51.6597C53.2573 54.523 50.3626 56.8351 47.0667 58.4235C43.7708 60.0119 40.1588 60.8357 36.5002 60.8334C32.8415 60.8357 29.2295 60.0119 25.9336 58.4235C22.6377 56.8351 19.743 54.523 17.4654 51.6597C22.396 48.1222 29.1241 45.625 36.5002 45.625C43.8762 45.625 50.6044 48.1222 55.5349 51.6597Z" fill="#006B95"/>
</svg>
