<svg width="24" height="24" viewBox="0 0 24 24" fill="none" xmlns="http://www.w3.org/2000/svg">
<path fill-rule="evenodd" clip-rule="evenodd" d="M20.1305 3.15998C19.568 2.59756 18.805 2.28162 18.0095 2.28162C17.214 2.28162 16.4511 2.59756 15.8885 3.15998L15.1815 3.86798L20.1315 8.81798L20.8375 8.11098C21.1162 7.83239 21.3372 7.50165 21.488 7.13764C21.6388 6.77363 21.7164 6.38348 21.7164 5.98948C21.7164 5.59547 21.6388 5.20532 21.488 4.84131C21.3372 4.4773 21.1162 4.14656 20.8375 3.86798L20.1305 3.15998ZM18.7165 10.232L13.7665 5.28198L4.67654 14.373C4.47762 14.5719 4.33866 14.8228 4.27554 15.097L3.24654 19.552C3.2082 19.7174 3.21259 19.8898 3.25932 20.053C3.30604 20.2162 3.39355 20.3649 3.5136 20.4849C3.63365 20.605 3.78228 20.6925 3.9455 20.7392C4.10872 20.7859 4.28115 20.7903 4.44654 20.752L8.90254 19.724C9.17634 19.6607 9.42686 19.5217 9.62554 19.323L18.7165 10.232Z" fill="#100E0E"/>
</svg>
